<svg width="92" height="92" viewBox="0 0 92 92" fill="none" xmlns="http://www.w3.org/2000/svg">
<g clip-path="url(#clip0_222_132)">
<path d="M59.1568 66.601C61.4968 65.1219 63.6146 63.269 65.3481 61.2253C64.0923 58.124 60.5466 51.6638 58.6243 50.9683C56.3978 51.0358 52.8213 55.817 50.9376 61.2625C48.4759 68.1039 38.5039 66.944 37.7367 59.6895L36.2102 46.4653C36.2075 46.4423 36.2051 46.4193 36.203 46.3963C36.0137 44.314 35.4446 42.3092 34.5114 40.4383L29.3504 30.0896C29.0902 29.5841 28.8526 29.062 28.6407 28.5322C13.5604 43.6789 23.7013 68.7009 44.4738 70.4797H44.474C50.8348 70.9251 55.9693 68.6156 59.1568 66.601Z" fill="#FEFEFE"/>
<path d="M46.1171 21.1889C41.5789 21.1889 37.2145 22.4336 33.4004 24.7631C33.4979 25.1156 33.6335 25.5455 33.8248 26.069C34.0009 26.5509 34.2096 27.0264 34.4451 27.4822C34.4512 27.4941 34.4573 27.5061 34.4634 27.5181L39.6328 37.8838C40.8796 40.3837 41.6419 43.061 41.8993 45.8423L43.4252 59.0626C43.4279 59.0856 43.4303 59.1085 43.4324 59.1315C43.5368 60.2823 45.1487 60.475 45.5289 59.391C46.621 56.234 48.2946 53.032 50.1203 50.6059C52.7978 47.0482 55.6748 45.2443 58.6714 45.2443C61.3274 45.2443 63.9145 47.2314 66.5807 51.3192C67.4558 52.6609 68.2503 54.0827 68.9419 55.4361C69.2032 54.8002 69.4355 54.1497 69.6285 53.4883L69.6506 53.4158C74.8671 37.7998 62.6069 20.9836 46.1171 21.1889Z" fill="#FEFEFE"/>
<path d="M24.2947 66.8091C23.2013 65.6816 22.2064 64.4868 21.311 63.2371L16.9189 67.63L24.3852 75.0933L28.8171 70.6604C27.1999 69.5264 25.6807 68.2384 24.2947 66.8091Z" fill="#FEFEFE"/>
<path d="M12.8726 71.6772L1.77778 82.7746C-3.33583 88.2928 3.745 95.3429 9.24976 90.232L20.3387 79.1406L12.8726 71.6772Z" fill="#FEFEFE"/>
<path d="M91.9762 14.5332C91.7533 5.06309 82.1423 -2.01703 73.0427 0.520027C66.8979 2.13417 60.4705 2.13417 54.3257 0.519848C45.2286 -2.01703 35.6133 5.06327 35.3924 14.5332C35.3924 14.5332 35.3308 15.8266 35.4403 17.4156C58.987 8.42751 82.8728 31.1606 75.1119 55.1278C74.8998 55.851 74.6516 56.5645 74.3754 57.2656C74.9625 58.6715 76.3394 59.599 77.879 59.599C79.8275 59.599 81.4604 58.125 81.659 56.1865L83.4184 39.0077C83.6469 36.7771 84.2582 34.6026 85.2256 32.5797L89.9476 22.7061C91.3363 20.3197 92.0901 17.5185 91.9762 14.5332ZM71.3808 12.083L68.2719 13.4846C65.3695 14.793 62.0387 14.797 59.1335 13.495L55.9882 12.0856C54.5459 11.4394 53.9006 9.74641 54.5468 8.30413C55.1931 6.86221 56.8859 6.21677 58.3282 6.86293L61.4737 8.27234C62.8874 8.90593 64.5081 8.90396 65.9198 8.26731L69.0289 6.86562C70.4697 6.21641 72.1639 6.85736 72.8135 8.2982C73.4629 9.73905 72.8214 11.4336 71.3808 12.083Z" fill="#FEFEFE"/>
</g>
<defs>
<clipPath id="clip0_222_132">
<rect width="92" height="92" fill="white"/>
</clipPath>
</defs>
</svg>
