<svg width="90" height="90" viewBox="0 0 90 90" fill="none" xmlns="http://www.w3.org/2000/svg">
<g clip-path="url(#clip0_64_410)">
<path d="M67.5934 0C56.5116 0 53.3654 4.19952 45 4.19952C36.6332 4.19952 33.4966 0 22.4066 0H22.4032C10.0504 0 0 10.0525 0 22.408C0 30.1623 1.18309 37.8465 3.517 45.2479C3.51975 45.2554 3.5218 45.263 3.52455 45.2705C4.50508 48.3755 7.35054 50.4609 10.6066 50.4609H79.3934C82.6495 50.4609 85.4949 48.3749 86.4754 45.2705C86.4768 45.2678 86.4775 45.2644 86.4789 45.2609C88.8155 37.8561 90 30.1671 90 22.408C90 10.0525 79.9496 0 67.5934 0V0Z" fill="white"/>
<path d="M39.3516 89.9999H50.6483C55.2323 89.9999 58.9333 86.29 58.9333 81.7148H31.0665C31.0665 86.2975 34.7758 89.9999 39.3516 89.9999Z" fill="white"/>
<path d="M31.0665 68.7251H58.9333V76.4416H31.0665V68.7251Z" fill="white"/>
<path d="M31.0665 55.7344H58.9333V63.4516H31.0665V55.7344Z" fill="white"/>
</g>
<defs>
<clipPath id="clip0_64_410">
<rect width="90" height="90" fill="white"/>
</clipPath>
</defs>
</svg>
