<svg width="90" height="90" viewBox="0 0 90 90" fill="none" xmlns="http://www.w3.org/2000/svg">
<path d="M75.2935 30.3296C75.9443 29.6383 76.5036 29.0415 76.5402 29.0242L87.838 16.5941C89.8825 14.3444 90.5257 11.2903 89.5587 8.42413C88.6218 5.64743 86.3286 3.6215 83.4241 3.00449C81.3681 2.56732 78.2832 2.65872 75.2654 5.5743C74.1566 6.64536 72.3704 6.66575 71.2359 5.62088C66.4256 1.18951 61.4901 2.62304 58.7256 5.19742C54.4917 9.13976 55.5219 14.237 58.2776 17.3289L71.148 30.3766C72.2834 31.5274 74.1863 31.5058 75.2935 30.3296Z" fill="white"/>
<path d="M80.8505 32.7586C80.8338 32.777 80.8168 32.7951 80.7998 32.8131L77.4559 36.3029C77.4399 36.3194 77.4238 36.336 77.4075 36.3521C76.3085 37.4448 74.7819 38.0701 73.2156 38.0701H73.1879C71.6011 38.0625 70.1226 37.4455 69.0245 36.3325L54.3185 21.4236L51.981 22.4456C46.9868 24.6292 41.2557 24.6357 36.2567 22.463L30.0723 19.7754C28.616 19.1424 27.9643 17.4842 28.6169 16.0716C29.2692 14.659 30.9788 14.027 32.4356 14.6599L38.6201 17.3475C42.1127 18.8654 46.1169 18.861 49.6059 17.3352L51.1267 16.6702C48.8175 11.1957 50.529 5.47456 54.1547 1.71521C45.9884 3.12519 37.6077 2.80245 29.5396 0.746813C27.5139 0.230707 25.3814 -0.0298071 23.181 0.0027132C5.94131 0.0957037 -5.40754 18.5896 2.64022 33.2604L10.6499 48.8378C12.336 52.1169 13.3767 55.6722 13.7188 59.3213L16.0893 84.6121C16.7671 90.9411 25.7205 91.9958 27.9433 86.0185C30.6443 78.4462 37.0957 62.6823 44.1167 62.2801C51.2124 61.8737 57.9 78.4046 60.6296 86.1251C61.4495 88.4444 63.6989 90.0003 66.2268 90.0003C69.2621 90.0003 71.8052 87.7732 72.1146 84.8448L74.8551 58.8922C75.2109 55.5224 76.1633 52.2372 77.6699 49.1813L85.0248 34.2649C86.5114 31.7872 87.4277 28.4341 87.798 25.1151L80.8505 32.7586Z" fill="white"/>
</svg>
