<svg width="110" height="87" viewBox="0 0 110 87" fill="none" xmlns="http://www.w3.org/2000/svg">
<path d="M75.2017 37.4416C75.2017 43.7295 70.1158 48.8452 63.8643 48.8452H46.1341C39.8826 48.8452 34.7967 43.7295 34.7967 37.4416V35.8748H16.0632C17.2019 38.2362 18.7238 40.43 20.5998 42.3797C20.0889 53.5258 21.6862 66.2393 24.9537 74.5834C28.0017 82.5905 32.249 87 36.9131 87C41.3192 87 46.8756 84.7637 48.3237 74.1104C51.5688 50.2419 54.965 49.9659 54.9992 49.9659C58.3939 52.4476 60.4554 67.77 61.6824 74.1623C63.0745 82.4409 67.1241 87.0003 73.0854 87.0003C77.7494 87.0003 81.9967 82.5907 85.0449 74.5836C88.3122 66.2419 89.9103 53.5239 89.3988 42.3799C91.2749 40.4302 92.7965 38.2362 93.9354 35.875H75.2019V37.4416H75.2017Z" fill="white"/>
<path d="M34.7981 27.8227C34.7981 21.5349 39.884 16.4191 46.1355 16.4191H63.8657C70.1171 16.4191 75.2031 21.5349 75.2031 27.8227V29.3896H96.014C99.8959 6.75069 73.1568 -8.46626 55.0006 5.14992C36.834 -8.4695 10.1061 6.75869 13.9871 29.3896H34.7981V27.8227Z" fill="white"/>
<path d="M46.1351 42.3605H63.8653C66.5615 42.3605 68.755 40.154 68.755 37.4421V27.8232C68.755 25.1113 66.5615 22.9048 63.8653 22.9048H46.1351C43.4389 22.9048 41.2454 25.1113 41.2454 27.8232V37.4421C41.2454 40.1542 43.4389 42.3605 46.1351 42.3605ZM58.1202 31.6599C58.2788 27.3621 64.4108 27.3653 64.5679 31.6599V33.6054C64.4093 37.9032 58.2773 37.8999 58.1202 33.6054V31.6599ZM45.4325 31.6599C45.5911 27.3621 51.723 27.3653 51.8801 31.6599V33.6054C51.7215 37.9032 45.5896 37.8999 45.4325 33.6054V31.6599Z" fill="white"/>
<path d="M3.20344 35.8742H16.0638C15.0745 33.8229 14.3745 31.6449 13.9863 29.3889H3.20344C-1.06943 29.5485 -1.0662 35.7161 3.20344 35.8742Z" fill="white"/>
<path d="M106.796 35.8742C111.069 35.7146 111.066 29.5469 106.796 29.3889H96.0137C95.6256 31.6449 94.9256 33.8229 93.9363 35.8742H106.796Z" fill="white"/>
</svg>
