<svg width="86" height="90" viewBox="0 0 86 90" fill="none" xmlns="http://www.w3.org/2000/svg">
<path d="M57.7076 44.8575C56.3046 44.8575 55.1493 43.752 55.0833 42.3466C53.9383 27.0559 32.0929 27.0666 30.953 42.3466C30.887 43.752 29.7315 44.8575 28.3287 44.8575H7.1116C6.58457 59.136 9.77338 88.8438 24.6777 90.0001C28.6591 89.9997 35.584 88.1949 37.2324 76.107C38.2067 68.9617 39.2818 63.2506 40.4277 59.1321C41.5542 55.0825 42.5027 53.4637 42.9908 52.8442C43.4529 53.4809 44.3313 55.1232 45.4281 59.2379C46.4378 63.0258 47.4511 68.0958 48.8162 76.1903C50.0095 83.5662 53.7991 89.9465 61.3584 89.9997C66.5284 89.9997 71.1646 85.3143 74.413 76.8061C77.6655 68.4787 79.3325 56.0844 78.9247 44.8574H57.7076V44.8575Z" fill="white"/>
<path d="M58.8355 0.0665468C53.149 0.0665468 47.6085 1.81427 43.0179 5.02411C19.6573 -11.052 -10.5085 14.4174 3.62462 39.5879H26.0055C30.1222 20.9089 55.9217 20.9221 60.0307 39.5879H82.4116C92.8336 22.198 79.2101 -0.190079 58.8355 0.0665468Z" fill="white"/>
</svg>
