<svg width="85" height="85" viewBox="0 0 85 85" fill="none" xmlns="http://www.w3.org/2000/svg">
<g clip-path="url(#clip0_64_397)">
<path d="M63.8388 0C53.3701 0 50.402 3.96621 42.5 3.96621C34.5994 3.96621 31.6319 0 21.1593 0C9.49218 0 0.00012207 9.49335 0.00012207 21.1631C0.00012207 28.4937 1.12008 35.7588 3.32886 42.7548L14.7742 79.0006C15.9084 82.5887 19.1982 84.9998 22.9621 84.9998C26.0548 84.9998 28.8946 83.3137 30.3751 80.6004L37.6603 67.242C38.6279 65.4697 40.4826 64.3685 42.5 64.3685C44.5182 64.3685 46.3722 65.4697 47.3398 67.2407L54.6263 80.6011C56.1075 83.3144 58.9479 84.9998 62.038 84.9998C65.8018 84.9998 69.0923 82.5887 70.2259 78.9999L81.6719 42.7548C83.88 35.7588 84.9999 28.4937 84.9999 21.1631C84.9999 9.49335 75.5085 0 63.8388 0V0ZM61.1716 36.9883C53.9149 36.9883 48.0116 31.0851 48.0116 23.8284C48.0116 16.5723 53.9149 10.6691 61.1716 10.6691C68.4276 10.6691 74.3309 16.5723 74.3309 23.8284C74.3309 31.0851 68.4276 36.9883 61.1716 36.9883Z" fill="white"/>
<path d="M61.1716 15.6494C56.6613 15.6494 52.9921 19.3186 52.9921 23.8289C52.9921 28.3386 56.6613 32.0078 61.1716 32.0078C65.6812 32.0078 69.3504 28.3386 69.3504 23.8289C69.3504 19.3186 65.6812 15.6494 61.1716 15.6494ZM61.1716 26.3185C59.7967 26.3185 58.6813 25.2031 58.6813 23.8283C58.6813 22.4541 59.7967 21.338 61.1716 21.338C62.5457 21.338 63.6618 22.4541 63.6618 23.8283C63.6618 25.2031 62.5457 26.3185 61.1716 26.3185Z" fill="white"/>
</g>
<defs>
<clipPath id="clip0_64_397">
<rect width="85" height="85" fill="white"/>
</clipPath>
</defs>
</svg>
