<svg width="33" height="33" viewBox="0 0 33 33" fill="none" xmlns="http://www.w3.org/2000/svg">
<circle r="16.5" transform="matrix(-1 0 0 1 16.5 16.5)" fill="#D4F6D8"/>
<path fill-rule="evenodd" clip-rule="evenodd" d="M23 17C23 16.6932 22.7921 16.4444 22.5357 16.4444H11.5852L14.5069 12.9484C14.6882 12.7314 14.6882 12.3797 14.5069 12.1627C14.3256 11.9458 14.0316 11.9458 13.8503 12.1627L10.136 16.6072C9.95467 16.8241 9.95467 17.1759 10.136 17.3928L13.8503 21.8373C14.0316 22.0542 14.3256 22.0542 14.5069 21.8373C14.6882 21.6203 14.6882 21.2686 14.5069 21.0516L11.5852 17.5556H22.5357C22.7921 17.5556 23 17.3068 23 17Z" fill="black"/>
</svg>
