<svg width="229" height="62" viewBox="0 0 229 62" fill="none" xmlns="http://www.w3.org/2000/svg">
<path d="M6.38083 6.83851H12.4233V43.0254H6.38083V6.83851ZM18.4658 9.35056C18.4658 8.12852 18.2282 6.96296 17.7529 5.85405C17.2776 4.74513 16.6327 3.78333 15.818 2.96864C15.0033 2.15394 14.0415 1.50886 12.9326 1.0337C11.8236 0.558383 10.6354 0.320801 9.36806 0.320801C8.10085 0.320801 6.92395 0.56971 5.83769 1.06768C4.75143 1.5655 3.80099 2.22175 2.98614 3.03645C2.17144 3.8513 1.53785 4.8131 1.08519 5.92202C0.632527 7.03093 0.40625 8.19633 0.40625 9.41838V40.0381C0.40625 41.2602 0.632527 42.4144 1.08519 43.5007C1.53785 44.5869 2.17144 45.5487 2.98614 46.3861C3.80099 47.2234 4.75143 47.8797 5.83769 48.355C6.92395 48.8302 8.10085 49.0679 9.36806 49.0679H24.5082V43.0254H18.4658V9.35056ZM49.0177 49.0679V12.8809H43.0431V43.0254H37.0005V12.8809H30.8901V40.0381C30.8901 41.2602 31.1392 42.4144 31.637 43.5007C32.1348 44.5869 32.7913 45.5487 33.606 46.3861C34.4206 47.2234 35.3825 47.8797 36.4914 48.355C37.6003 48.8302 38.7658 49.0679 39.9879 49.0679H49.0177ZM66.1266 43.0254H60.0842V29.9899H66.1266V43.0254ZM63.0714 49.0679H72.1692V21.9786C72.1692 20.666 71.9316 19.4552 71.4563 18.3463C70.9809 17.2374 70.336 16.2756 69.5213 15.4609C68.7066 14.6462 67.7448 14.0125 66.6359 13.56C65.527 13.1073 64.3388 12.8809 63.0714 12.8809H54.1096V18.9234H66.1266V23.8118H63.0714C61.8042 23.8118 60.6273 24.0493 59.5411 24.5245C58.4548 24.9998 57.5043 25.6448 56.6895 26.4596C55.8748 27.2743 55.2412 28.2361 54.7885 29.345C54.3358 30.4539 54.1096 31.642 54.1096 32.9093V39.9702C54.1096 41.2375 54.3358 42.4256 54.7885 43.5345C55.2412 44.6434 55.8748 45.6052 56.6895 46.4201C57.5043 47.2348 58.4548 47.8797 59.5411 48.355C60.6273 48.8302 61.8042 49.0679 63.0714 49.0679ZM84.2541 49.4073V0.795963H78.2115V43.5007C78.2115 45.2205 78.8113 46.635 80.0107 47.7439C81.2103 48.8528 82.6247 49.4073 84.2541 49.4073ZM101.906 54.9745C101.906 56.6492 102.483 58.075 103.637 59.2517C104.792 60.4286 106.229 61.0169 107.949 61.0169V12.8809H101.906V42.9575H95.8638V12.8809H89.7534V40.1739C89.7534 41.396 90.0023 42.5502 90.5003 43.6365C90.9981 44.7227 91.6544 45.6619 92.4692 46.4539C93.2839 47.2461 94.2457 47.8797 95.3546 48.355C96.4635 48.8302 97.629 49.0679 98.8512 49.0679H101.906V54.9745ZM135.581 49.4073C136.849 49.4073 138.037 49.1697 139.146 48.6944C140.254 48.2192 141.216 47.5741 142.031 46.7595C142.846 45.9448 143.491 44.9829 143.966 43.874C144.441 42.7651 144.679 41.5771 144.679 40.3097V36.983C144.679 35.7156 144.441 34.5161 143.966 33.3847C143.491 32.2531 142.846 31.28 142.031 30.4653C141.216 29.6504 140.254 29.0055 139.146 28.5303C138.037 28.055 136.849 27.8174 135.581 27.8174C134.812 27.8174 134.121 27.5232 133.51 26.9348C132.899 26.3463 132.594 25.6448 132.594 24.8301V18.9234H138.636V24.9658H144.679V21.6391C144.679 20.3717 144.441 19.1724 143.966 18.0408C143.491 16.9092 142.846 15.9248 142.031 15.0876C141.216 14.2501 140.254 13.5938 139.146 13.1186C138.037 12.6433 136.849 12.4057 135.581 12.4057C134.314 12.4057 133.137 12.6433 132.051 13.1186C130.964 13.5938 130.014 14.2501 129.199 15.0876C128.385 15.9248 127.751 16.9092 127.298 18.0408C126.846 19.1724 126.619 20.3717 126.619 21.6391V24.8301C126.619 26.0974 126.846 27.2856 127.298 28.3945C127.751 29.5035 128.385 30.4653 129.199 31.2799C130.014 32.0946 130.964 32.7396 132.051 33.2149C133.137 33.69 134.314 33.9278 135.581 33.9278C136.486 33.9278 137.222 34.2333 137.788 34.8443C138.354 35.4554 138.636 36.1683 138.636 36.983V43.0254H132.594V35.8966H126.619V40.3097C126.619 41.5771 126.846 42.7651 127.298 43.874C127.751 44.9829 128.385 45.9448 129.199 46.7595C130.014 47.5741 130.964 48.2192 132.051 48.6944C133.137 49.1697 134.314 49.4073 135.581 49.4073ZM166.948 15.1894C166.133 14.4651 165.205 13.8993 164.164 13.492C163.123 13.0847 162.037 12.8809 160.905 12.8809H151.808V49.0679H157.85V18.9234H163.893V49.0679H169.867V18.9234H175.91V49.0679H181.952V21.9107C181.952 20.6433 181.726 19.4552 181.273 18.3463C180.821 17.2374 180.187 16.2756 179.372 15.4609C178.557 14.6462 177.596 14.0125 176.487 13.56C175.378 13.1073 174.19 12.8809 172.922 12.8809C171.745 12.8809 170.637 13.0847 169.596 13.492C168.554 13.8993 167.672 14.4651 166.948 15.1894ZM194.784 49.4073V12.8809H188.741V43.5007C188.741 45.2205 189.341 46.635 190.541 47.7439C191.74 48.8528 193.154 49.4073 194.784 49.4073ZM188.741 0.795963V6.83851H194.784V0.795963H188.741ZM206.326 49.4073V0.795963H200.283V43.5007C200.283 45.2205 200.883 46.635 202.082 47.7439C203.282 48.8528 204.696 49.4073 206.326 49.4073ZM219.836 12.4057C218.569 12.4057 217.392 12.6433 216.306 13.1186C215.22 13.5938 214.269 14.2501 213.454 15.0876C212.64 15.9248 212.006 16.9092 211.553 18.0408C211.101 19.1724 210.874 20.3717 210.874 21.6391V40.3097C210.874 41.5771 211.101 42.7651 211.553 43.874C212.006 44.9829 212.64 45.9448 213.454 46.7595C214.269 47.5741 215.22 48.2192 216.306 48.6944C217.392 49.1697 218.569 49.4073 219.836 49.4073C221.104 49.4073 222.292 49.1697 223.401 48.6944C224.51 48.2192 225.472 47.5741 226.286 46.7595C227.101 45.9448 227.746 44.9829 228.221 43.874C228.696 42.7651 228.934 41.5771 228.934 40.3097V36.983H222.892V43.0254H216.849V30.9404H228.934V21.6391C228.934 20.3266 228.696 19.1045 228.221 17.973C227.746 16.8414 227.101 15.8683 226.286 15.0536C225.472 14.2389 224.51 13.5938 223.401 13.1186C222.292 12.6433 221.104 12.4057 219.836 12.4057ZM216.849 18.9234H222.892V24.9658H216.849V18.9234Z" fill="#01B714"/>
</svg>
