<svg width="183" height="18" viewBox="0 0 183 18" fill="none" xmlns="http://www.w3.org/2000/svg">
<path d="M7.14896 13.8669H2.76619C2.42759 13.8669 2.10472 13.8073 1.79745 13.6882C1.49024 13.5691 1.21748 13.4061 0.979196 13.1992C0.740974 12.9922 0.55287 12.7415 0.414897 12.4467C0.276989 12.1521 0.208008 11.8229 0.208008 11.4592V3.8411H1.90096V12.1928H3.57504V3.8411H5.23033V12.1928C5.94513 12.1928 6.44362 12.3496 6.72577 12.6631C7.00792 12.9766 7.14896 13.3779 7.14896 13.8669ZM10.5912 3.70939C10.9424 3.70939 11.2716 3.77524 11.5788 3.90688C11.8861 4.03859 12.1525 4.21729 12.3782 4.44298C12.6039 4.66874 12.7826 4.93836 12.9143 5.25183C13.046 5.56537 13.1118 5.90391 13.1118 6.26757V8.84462H9.76359V12.1928H11.4377V10.5187H13.1118V11.4404C13.1118 11.8041 13.046 12.1364 12.9143 12.4373C12.7826 12.7383 12.6039 13.0016 12.3782 13.2274C12.1525 13.4531 11.8861 13.6286 11.5788 13.7541C11.2716 13.8795 10.9424 13.9422 10.5912 13.9422C10.2401 13.9422 9.91409 13.8795 9.61314 13.7541C9.31214 13.6286 9.04878 13.4531 8.82309 13.2274C8.59733 13.0016 8.42177 12.7383 8.2964 12.4373C8.17102 12.1364 8.1083 11.8041 8.1083 11.4404V6.26757C8.1083 5.9165 8.17102 5.58417 8.2964 5.27063C8.42177 4.95715 8.59733 4.6844 8.82309 4.45238C9.04878 4.22042 9.31214 4.03859 9.61314 3.90688C9.91409 3.77524 10.2401 3.70939 10.5912 3.70939ZM9.76359 5.51518V7.18933H11.4377V5.51518H9.76359ZM19.0559 3.8411V13.8669H17.4005L17.3817 10.2554H15.7265V13.8669H14.0524V3.85989H15.7265V8.58127L17.4005 8.56247V3.8411H19.0559ZM21.7269 13.8669V5.49638H20.0152V3.8411H25.0751V5.51518H23.401V13.8669H21.7269ZM27.7462 12.1928H29.4203V5.51518H27.7462V12.1928ZM27.7462 17.1587C27.5205 17.1587 27.3072 17.1148 27.1066 17.0271C26.906 16.9393 26.7273 16.8202 26.5705 16.6697C26.4138 16.5192 26.2915 16.3405 26.2037 16.1336C26.1159 15.9267 26.0721 15.7103 26.0721 15.4846V3.8411H28.5927C28.9312 3.8411 29.2541 3.90375 29.5613 4.0292C29.8686 4.15457 30.1351 4.33014 30.3608 4.55589C30.5866 4.78158 30.7653 5.04807 30.8969 5.35528C31.0286 5.66255 31.0944 5.99169 31.0944 6.34282V11.3463C31.0944 11.6975 31.0286 12.0267 30.8969 12.3339C30.7653 12.6412 30.5866 12.9076 30.3608 13.1333C30.1351 13.359 29.8686 13.5377 29.5613 13.6694C29.2541 13.8011 28.9312 13.8669 28.5927 13.8669H27.7462V17.1587ZM35.797 6.24878C35.797 5.89764 35.8628 5.56537 35.9945 5.25183C36.1261 4.93836 36.3048 4.66874 36.5306 4.44298C36.7563 4.21729 37.0227 4.03859 37.33 3.90688C37.6372 3.77524 37.9664 3.70939 38.3175 3.70939C38.6686 3.70939 38.9947 3.77524 39.2956 3.90688C39.5966 4.03859 39.86 4.21729 40.0857 4.44298C40.3114 4.66874 40.4869 4.93836 40.6124 5.25183C40.7378 5.56537 40.8005 5.89764 40.8005 6.24878V11.4404C40.8005 11.8041 40.7378 12.1364 40.6124 12.4373C40.4869 12.7383 40.3114 13.0016 40.0857 13.2274C39.86 13.4531 39.5966 13.6286 39.2956 13.7541C38.9947 13.8795 38.6686 13.9422 38.3175 13.9422C37.9664 13.9422 37.6372 13.8795 37.33 13.7541C37.0227 13.6286 36.7563 13.4531 36.5306 13.2274C36.3048 13.0016 36.1261 12.7383 35.9945 12.4373C35.8628 12.1364 35.797 11.8041 35.797 11.4404V10.2366H37.471V12.1928H39.1452V9.4465H37.471V7.90406H39.1452V5.51518H37.471V7.18933H35.797V6.24878ZM46.7633 6.24878V7.18933H45.0892V5.51518H43.4151V12.1928H45.0892V10.2366H46.7633V11.4404C46.7633 11.8041 46.6975 12.1364 46.5658 12.4373C46.4341 12.7383 46.2554 13.0016 46.0297 13.2274C45.804 13.4531 45.5375 13.6286 45.2303 13.7541C44.923 13.8795 44.5939 13.9422 44.2428 13.9422C43.8916 13.9422 43.5655 13.8795 43.2646 13.7541C42.9637 13.6286 42.7003 13.4531 42.4746 13.2274C42.2489 13.0016 42.0733 12.7383 41.9479 12.4373C41.8225 12.1364 41.7598 11.8041 41.7598 11.4404V6.24878C41.7598 5.89764 41.8225 5.56537 41.9479 5.25183C42.0733 4.93836 42.2489 4.66874 42.4746 4.44298C42.7003 4.21729 42.9637 4.03859 43.2646 3.90688C43.5655 3.77524 43.8916 3.70939 44.2428 3.70939C44.5939 3.70939 44.923 3.77524 45.2303 3.90688C45.5375 4.03859 45.804 4.21729 46.0297 4.44298C46.2554 4.66874 46.4341 4.93836 46.5658 5.25183C46.6975 5.56537 46.7633 5.89764 46.7633 6.24878ZM49.4344 13.8669V5.49638H47.7226V3.8411H52.7826V5.51518H51.1084V13.8669H49.4344ZM56.2249 3.70939C56.5759 3.70939 56.9052 3.77524 57.2124 3.90688C57.5196 4.03859 57.7861 4.21729 58.0118 4.44298C58.2376 4.66874 58.4162 4.93836 58.5479 5.25183C58.6796 5.56537 58.7454 5.90391 58.7454 6.26757V8.84462H55.3972V12.1928H57.0713V10.5187H58.7454V11.4404C58.7454 11.8041 58.6796 12.1364 58.5479 12.4373C58.4162 12.7383 58.2376 13.0016 58.0118 13.2274C57.7861 13.4531 57.5196 13.6286 57.2124 13.7541C56.9052 13.8795 56.5759 13.9422 56.2249 13.9422C55.8737 13.9422 55.5477 13.8795 55.2467 13.7541C54.9458 13.6286 54.6824 13.4531 54.4567 13.2274C54.231 13.0016 54.0554 12.7383 53.93 12.4373C53.8046 12.1364 53.7419 11.8041 53.7419 11.4404V6.26757C53.7419 5.9165 53.8046 5.58417 53.93 5.27063C54.0554 4.95715 54.231 4.6844 54.4567 4.45238C54.6824 4.22042 54.9458 4.03859 55.2467 3.90688C55.5477 3.77524 55.8737 3.70939 56.2249 3.70939ZM55.3972 5.51518V7.18933H57.0713V5.51518H55.3972ZM61.4165 13.8669V5.49638H59.7047V3.8411H64.7647V5.51518H63.0906V13.8669H61.4165ZM70.7464 13.8669H68.2446C67.906 13.8669 67.5831 13.8011 67.2758 13.6694C66.9686 13.5377 66.7021 13.3559 66.4764 13.1239C66.2507 12.8919 66.0689 12.6254 65.931 12.3245C65.793 12.0235 65.724 11.7037 65.724 11.3651V3.8411H67.4169V12.1928H69.091V3.8411H70.7464V13.8669ZM71.6869 3.8411V8.09222C71.6869 8.58127 71.7684 8.96999 71.9314 9.25841C72.0944 9.54682 72.2731 9.76317 72.4675 9.90735C72.6619 10.0516 72.85 10.1456 73.0318 10.1895C73.2137 10.2334 73.3234 10.2554 73.361 10.2554H75.0163V13.8669H76.6904V3.85989H75.0163V8.58127L74.1698 8.56247C73.9566 8.56247 73.7685 8.51855 73.6055 8.43076C73.4425 8.34298 73.361 8.16115 73.361 7.88526L73.3798 3.85989L71.6869 3.8411ZM80.1326 3.70939C80.4838 3.70939 80.8129 3.77524 81.1202 3.90688C81.4274 4.03859 81.6939 4.21729 81.9196 4.44298C82.1453 4.66874 82.3241 4.93836 82.4557 5.25183C82.5874 5.56537 82.6533 5.90391 82.6533 6.26757V8.84462H79.305V12.1928H80.9791V10.5187H82.6533V11.4404C82.6533 11.8041 82.5874 12.1364 82.4557 12.4373C82.3241 12.7383 82.1453 13.0016 81.9196 13.2274C81.6939 13.4531 81.4274 13.6286 81.1202 13.7541C80.8129 13.8795 80.4838 13.9422 80.1326 13.9422C79.7815 13.9422 79.4555 13.8795 79.1545 13.7541C78.8536 13.6286 78.5902 13.4531 78.3645 13.2274C78.1388 13.0016 77.9632 12.7383 77.8378 12.4373C77.7124 12.1364 77.6497 11.8041 77.6497 11.4404V6.26757C77.6497 5.9165 77.7124 5.58417 77.8378 5.27063C77.9632 4.95715 78.1388 4.6844 78.3645 4.45238C78.5902 4.22042 78.8536 4.03859 79.1545 3.90688C79.4555 3.77524 79.7815 3.70939 80.1326 3.70939ZM79.305 5.51518V7.18933H80.9791V5.51518H79.305ZM88.616 6.24878V7.18933H86.942V5.51518H85.2678V12.1928H86.942V10.2366H88.616V11.4404C88.616 11.8041 88.5502 12.1364 88.4185 12.4373C88.2869 12.7383 88.1082 13.0016 87.8824 13.2274C87.6567 13.4531 87.3903 13.6286 87.083 13.7541C86.7758 13.8795 86.4466 13.9422 86.0955 13.9422C85.7444 13.9422 85.4183 13.8795 85.1174 13.7541C84.8164 13.6286 84.5531 13.4531 84.3273 13.2274C84.1016 13.0016 83.9261 12.7383 83.8006 12.4373C83.6752 12.1364 83.6125 11.8041 83.6125 11.4404V6.24878C83.6125 5.89764 83.6752 5.56537 83.8006 5.25183C83.9261 4.93836 84.1016 4.66874 84.3273 4.44298C84.5531 4.21729 84.8164 4.03859 85.1174 3.90688C85.4183 3.77524 85.7444 3.70939 86.0955 3.70939C86.4466 3.70939 86.7758 3.77524 87.083 3.90688C87.3903 4.03859 87.6567 4.21729 87.8824 4.44298C88.1082 4.66874 88.2869 4.93836 88.4185 5.25183C88.5502 5.56537 88.616 5.89764 88.616 6.24878ZM94.5601 3.8411V6.92598C94.5601 7.27705 94.5381 7.60312 94.4942 7.90406C94.4504 8.20507 94.3657 8.46842 94.2403 8.69411C94.1149 8.91987 93.9456 9.09537 93.7325 9.22081C93.5192 9.34619 93.2371 9.40891 92.886 9.40891C93.2246 9.40891 93.5036 9.47476 93.7231 9.60641C93.9425 9.73811 94.1149 9.91675 94.2403 10.1425C94.3657 10.3682 94.4504 10.6347 94.4942 10.942C94.5381 11.2492 94.5601 11.5721 94.5601 11.9106V13.8669H92.9048V11.9106C92.9048 11.4467 92.8202 11.0548 92.6509 10.735C92.4816 10.4153 92.2904 10.2554 92.0771 10.2554H91.2307V13.8669H89.5566V3.85989H91.2307V8.58127H92.0771C92.2904 8.58127 92.4816 8.41823 92.6509 8.09222C92.8202 7.76615 92.9048 7.37116 92.9048 6.90712V3.8411H94.5601ZM100.504 11.4404C100.504 11.8041 100.438 12.1364 100.307 12.4373C100.175 12.7383 99.9963 13.0016 99.7705 13.2274C99.5448 13.4531 99.2783 13.6286 98.9711 13.7541C98.6639 13.8795 98.3347 13.9422 97.9835 13.9422C97.6325 13.9422 97.3064 13.8795 97.0054 13.7541C96.7044 13.6286 96.4411 13.4531 96.2154 13.2274C95.9896 13.0016 95.8141 12.7383 95.6887 12.4373C95.5633 12.1364 95.5006 11.8041 95.5006 11.4404V6.26757C95.5006 5.9165 95.5633 5.58417 95.6887 5.27063C95.8141 4.95715 95.9896 4.6844 96.2154 4.45238C96.4411 4.22042 96.7044 4.03859 97.0054 3.90688C97.3064 3.77524 97.6325 3.70939 97.9835 3.70939C98.3347 3.70939 98.6639 3.77524 98.9711 3.90688C99.2783 4.03859 99.5448 4.22042 99.7705 4.45238C99.9963 4.6844 100.175 4.95715 100.307 5.27063C100.438 5.58417 100.504 5.9165 100.504 6.26757V11.4404ZM97.1559 5.51518V12.1928H98.83V5.51518H97.1559ZM106.486 13.8669H103.984C103.645 13.8669 103.323 13.8011 103.015 13.6694C102.708 13.5377 102.442 13.3559 102.216 13.1239C101.99 12.8919 101.808 12.6254 101.67 12.3245C101.532 12.0235 101.463 11.7037 101.463 11.3651V3.8411H103.156V12.1928H104.83V3.8411H106.486V13.8669ZM101.482 2.261V0.586914H106.486V2.261H101.482Z" fill="#2B2A29"/>
<path d="M115.66 6.20143V7.14199H113.986V5.46784H112.312V12.1455H113.986V10.1892H115.66V11.3931C115.66 11.7568 115.594 12.0891 115.462 12.3901C115.331 12.691 115.152 12.9544 114.926 13.1801C114.7 13.4058 114.434 13.5814 114.127 13.7068C113.82 13.8321 113.49 13.8949 113.139 13.8949C112.788 13.8949 112.462 13.8321 112.161 13.7068C111.86 13.5814 111.597 13.4058 111.371 13.1801C111.145 12.9544 110.97 12.691 110.844 12.3901C110.719 12.0891 110.656 11.7568 110.656 11.3931V6.20143C110.656 5.85037 110.719 5.51803 110.844 5.20449C110.97 4.89101 111.145 4.6214 111.371 4.39571C111.597 4.16995 111.86 3.99125 112.161 3.8596C112.462 3.7279 112.788 3.66211 113.139 3.66211C113.49 3.66211 113.82 3.7279 114.127 3.8596C114.434 3.99125 114.7 4.16995 114.926 4.39571C115.152 4.6214 115.331 4.89101 115.462 5.20449C115.594 5.51803 115.66 5.85037 115.66 6.20143ZM118.331 13.8196V5.44904H116.619V3.79375H121.679V5.46784H120.005V13.8196H118.331ZM127.623 11.3931C127.623 11.7568 127.557 12.0891 127.426 12.3901C127.294 12.691 127.115 12.9544 126.89 13.1801C126.664 13.4058 126.397 13.5814 126.09 13.7068C125.783 13.8321 125.454 13.8949 125.103 13.8949C124.751 13.8949 124.425 13.8321 124.124 13.7068C123.823 13.5814 123.56 13.4058 123.334 13.1801C123.109 12.9544 122.933 12.691 122.808 12.3901C122.682 12.0891 122.62 11.7568 122.62 11.3931V6.2203C122.62 5.86916 122.682 5.53683 122.808 5.22335C122.933 4.90981 123.109 4.63706 123.334 4.4051C123.56 4.17308 123.823 3.99125 124.124 3.8596C124.425 3.7279 124.751 3.66211 125.103 3.66211C125.454 3.66211 125.783 3.7279 126.09 3.8596C126.397 3.99125 126.664 4.17308 126.89 4.4051C127.115 4.63706 127.294 4.90981 127.426 5.22335C127.557 5.53683 127.623 5.86916 127.623 6.2203V11.3931ZM124.275 5.46784V12.1455H125.949V5.46784H124.275ZM132.758 4.4333C132.959 4.23267 133.204 4.0759 133.492 3.96305C133.78 3.85021 134.088 3.79375 134.414 3.79375C134.765 3.79375 135.094 3.85647 135.401 3.98185C135.708 4.10723 135.975 4.28279 136.201 4.50855C136.426 4.73424 136.602 5.00072 136.727 5.308C136.853 5.61521 136.915 5.94442 136.915 6.29549V13.8196H135.241V5.46784H133.567V13.8196H131.912V5.46784H130.238V13.8196H128.564V3.79375H131.084C131.398 3.79375 131.699 3.85021 131.987 3.96305C132.276 4.0759 132.533 4.23267 132.758 4.4333ZM141.185 12.1455V8.53393H139.511V12.1455H141.185ZM140.339 13.8196C139.988 13.8196 139.662 13.7538 139.361 13.6221C139.06 13.4905 138.796 13.3118 138.571 13.086C138.345 12.8603 138.169 12.5938 138.044 12.2866C137.919 11.9794 137.856 11.6502 137.856 11.2991V9.34278C137.856 8.99165 137.919 8.66251 138.044 8.35523C138.169 8.04802 138.345 7.78154 138.571 7.55578C138.796 7.33009 139.06 7.15139 139.361 7.01968C139.662 6.88804 139.988 6.82218 140.339 6.82218H141.185V5.46784H137.856V3.79375H140.339C140.69 3.79375 141.019 3.85647 141.326 3.98185C141.634 4.10723 141.9 4.28279 142.126 4.50855C142.352 4.73424 142.53 5.00072 142.662 5.308C142.794 5.61521 142.859 5.95068 142.859 6.31435V13.8196H140.339ZM145.531 13.8196V5.44904H143.819V3.79375H148.879V5.46784H147.205V13.8196H145.531ZM154.823 11.3931C154.823 11.7568 154.757 12.0891 154.625 12.3901C154.494 12.691 154.315 12.9544 154.089 13.1801C153.863 13.4058 153.597 13.5814 153.29 13.7068C152.983 13.8321 152.653 13.8949 152.302 13.8949C151.951 13.8949 151.625 13.8321 151.324 13.7068C151.023 13.5814 150.76 13.4058 150.534 13.1801C150.308 12.9544 150.133 12.691 150.007 12.3901C149.882 12.0891 149.819 11.7568 149.819 11.3931V6.2203C149.819 5.86916 149.882 5.53683 150.007 5.22335C150.133 4.90981 150.308 4.63706 150.534 4.4051C150.76 4.17308 151.023 3.99125 151.324 3.8596C151.625 3.7279 151.951 3.66211 152.302 3.66211C152.653 3.66211 152.983 3.7279 153.29 3.8596C153.597 3.99125 153.863 4.17308 154.089 4.4051C154.315 4.63706 154.494 4.90981 154.625 5.22335C154.757 5.53683 154.823 5.86916 154.823 6.2203V11.3931ZM151.475 5.46784V12.1455H153.149V5.46784H151.475ZM158.246 3.79375C157.908 3.79375 157.588 3.85647 157.287 3.98185C156.986 4.10723 156.723 4.28279 156.497 4.50855C156.271 4.73424 156.093 5.00072 155.961 5.308C155.829 5.61521 155.763 5.94442 155.763 6.29549V15.4749C156.002 15.4749 156.221 15.3746 156.422 15.174C156.622 14.9733 156.798 14.7225 156.948 14.4216C157.099 14.1206 157.215 13.7945 157.296 13.4434C157.378 13.0923 157.419 12.7663 157.419 12.4653V5.46784H159.093V13.8196H160.767V3.79375H158.246ZM166.711 11.3931C166.711 11.7568 166.645 12.0891 166.513 12.3901C166.382 12.691 166.203 12.9544 165.977 13.1801C165.752 13.4058 165.485 13.5814 165.178 13.7068C164.871 13.8321 164.541 13.8949 164.19 13.8949C163.839 13.8949 163.513 13.8321 163.212 13.7068C162.911 13.5814 162.648 13.4058 162.422 13.1801C162.196 12.9544 162.021 12.691 161.896 12.3901C161.77 12.0891 161.707 11.7568 161.707 11.3931V6.2203C161.707 5.86916 161.77 5.53683 161.896 5.22335C162.021 4.90981 162.196 4.63706 162.422 4.4051C162.648 4.17308 162.911 3.99125 163.212 3.8596C163.513 3.7279 163.839 3.66211 164.19 3.66211C164.541 3.66211 164.871 3.7279 165.178 3.8596C165.485 3.99125 165.752 4.17308 165.977 4.4051C166.203 4.63706 166.382 4.90981 166.513 5.22335C166.645 5.53683 166.711 5.86916 166.711 6.2203V11.3931ZM163.363 5.46784V12.1455H165.037V5.46784H163.363ZM167.689 6.31435C167.689 5.96321 167.758 5.63401 167.896 5.3268C168.034 5.01952 168.216 4.75304 168.441 4.52735C168.667 4.30166 168.934 4.12295 169.241 3.99125C169.548 3.8596 169.871 3.79375 170.21 3.79375H171.037V5.46784H169.363V13.8196H167.689V6.31435ZM177.019 13.8196H174.517C174.179 13.8196 173.856 13.7538 173.548 13.6221C173.241 13.4905 172.975 13.3086 172.749 13.0766C172.523 12.8447 172.341 12.5782 172.204 12.2772C172.066 11.9762 171.997 11.6565 171.997 11.3179V3.79375H173.69V12.1455H175.364V3.79375H177.019V13.8196ZM183.001 13.8196H180.499C180.16 13.8196 179.837 13.7538 179.53 13.6221C179.223 13.4905 178.956 13.3086 178.731 13.0766C178.505 12.8447 178.323 12.5782 178.185 12.2772C178.047 11.9762 177.978 11.6565 177.978 11.3179V3.79375H179.671V12.1455H181.345V3.79375H183.001V13.8196Z" fill="#2B2A29"/>
</svg>
