<svg width="228" height="22" viewBox="0 0 228 22" fill="none" xmlns="http://www.w3.org/2000/svg">
<path d="M9.16112 17.8049H3.70698C3.28561 17.8049 2.88381 17.729 2.50142 17.5772C2.11911 17.4254 1.77968 17.2176 1.48314 16.9539C1.18669 16.6902 0.952602 16.3706 0.780901 15.9949C0.609282 15.6194 0.523438 15.1999 0.523438 14.7364V5.02744H2.63023V15.6714H4.71355V5.02744H6.77348V15.6714C7.66301 15.6714 8.28337 15.8711 8.63449 16.2707C8.9856 16.6702 9.16112 17.1817 9.16112 17.8049ZM13.4449 4.85958C13.8818 4.85958 14.2915 4.94351 14.6738 5.11128C15.0562 5.27914 15.3878 5.50688 15.6687 5.79452C15.9496 6.08223 16.1719 6.42585 16.3358 6.82536C16.4997 7.22495 16.5816 7.6564 16.5816 8.11987V11.4042H12.4149V15.6714H14.4983V13.5377H16.5816V14.7124C16.5816 15.1759 16.4997 15.5994 16.3358 15.983C16.1719 16.3666 15.9496 16.7021 15.6687 16.9899C15.3878 17.2775 15.0562 17.5012 14.6738 17.6611C14.2915 17.8209 13.8818 17.9008 13.4449 17.9008C13.0079 17.9008 12.6022 17.8209 12.2277 17.6611C11.8531 17.5012 11.5254 17.2775 11.2445 16.9899C10.9636 16.7021 10.7451 16.3666 10.5891 15.983C10.433 15.5994 10.355 15.1759 10.355 14.7124V8.11987C10.355 7.67245 10.433 7.2489 10.5891 6.84931C10.7451 6.4498 10.9636 6.1022 11.2445 5.80649C11.5254 5.51088 11.8531 5.27914 12.2277 5.11128C12.6022 4.94351 13.0079 4.85958 13.4449 4.85958ZM12.4149 7.16098V9.29461H14.4983V7.16098H12.4149ZM23.9787 5.02744V17.8049H21.9187L21.8953 13.2021H19.8354V17.8049H17.7521V5.05139H19.8354V11.0686L21.9187 11.0446V5.02744H23.9787ZM27.3027 17.8049V7.13703H25.1725V5.02744H31.4694V7.16098H29.386V17.8049H27.3027ZM34.7934 15.6714H36.8768V7.16098H34.7934V15.6714ZM34.7934 22.0001C34.5125 22.0001 34.2472 21.9442 33.9975 21.8324C33.7478 21.7205 33.5254 21.5687 33.3303 21.3769C33.1353 21.1851 32.9831 20.9573 32.8739 20.6937C32.7646 20.43 32.7101 20.1542 32.7101 19.8666V5.02744H35.8468C36.2681 5.02744 36.67 5.10729 37.0523 5.26716C37.4347 5.42695 37.7663 5.6507 38.0472 5.93841C38.3281 6.22605 38.5505 6.56567 38.7143 6.95719C38.8782 7.3488 38.9601 7.76827 38.9601 8.21578V14.5925C38.9601 15.04 38.8782 15.4596 38.7143 15.8511C38.5505 16.2427 38.3281 16.5823 38.0472 16.87C37.7663 17.1576 37.4347 17.3854 37.0523 17.5532C36.67 17.721 36.2681 17.8049 35.8468 17.8049H34.7934V22.0001ZM44.8122 8.09592C44.8122 7.64842 44.8942 7.22495 45.058 6.82536C45.2218 6.42585 45.4442 6.08223 45.7252 5.79452C46.006 5.50688 46.3376 5.27914 46.72 5.11128C47.1023 4.94351 47.512 4.85958 47.949 4.85958C48.3858 4.85958 48.7916 4.94351 49.1662 5.11128C49.5408 5.27914 49.8685 5.50688 50.1493 5.79452C50.4302 6.08223 50.6487 6.42585 50.8048 6.82536C50.9608 7.22495 51.0389 7.64842 51.0389 8.09592V14.7124C51.0389 15.1759 50.9608 15.5994 50.8048 15.983C50.6487 16.3666 50.4302 16.7021 50.1493 16.9899C49.8685 17.2775 49.5408 17.5012 49.1662 17.6611C48.7916 17.8209 48.3858 17.9008 47.949 17.9008C47.512 17.9008 47.1023 17.8209 46.72 17.6611C46.3376 17.5012 46.006 17.2775 45.7252 16.9899C45.4442 16.7021 45.2218 16.3666 45.058 15.983C44.8942 15.5994 44.8122 15.1759 44.8122 14.7124V13.1782H46.8955V15.6714H48.9789V12.1713H46.8955V10.2055H48.9789V7.16098H46.8955V9.29461H44.8122V8.09592ZM58.4594 8.09592V9.29461H56.376V7.16098H54.2927V15.6714H56.376V13.1782H58.4594V14.7124C58.4594 15.1759 58.3774 15.5994 58.2135 15.983C58.0497 16.3666 57.8273 16.7021 57.5463 16.9899C57.2655 17.2775 56.9339 17.5012 56.5516 17.6611C56.1692 17.8209 55.7596 17.9008 55.3226 17.9008C54.8856 17.9008 54.4799 17.8209 54.1053 17.6611C53.7308 17.5012 53.4031 17.2775 53.1222 16.9899C52.8413 16.7021 52.6228 16.3666 52.4667 15.983C52.3107 15.5994 52.2326 15.1759 52.2326 14.7124V8.09592C52.2326 7.64842 52.3107 7.22495 52.4667 6.82536C52.6228 6.42585 52.8413 6.08223 53.1222 5.79452C53.4031 5.50688 53.7308 5.27914 54.1053 5.11128C54.4799 4.94351 54.8856 4.85958 55.3226 4.85958C55.7596 4.85958 56.1692 4.94351 56.5516 5.11128C56.9339 5.27914 57.2655 5.50688 57.5463 5.79452C57.8273 6.08223 58.0497 6.42585 58.2135 6.82536C58.3774 7.22495 58.4594 7.64842 58.4594 8.09592ZM61.7833 17.8049V7.13703H59.6531V5.02744H65.9501V7.16098H63.8666V17.8049H61.7833ZM70.2338 4.85958C70.6707 4.85958 71.0804 4.94351 71.4628 5.11128C71.8451 5.27914 72.1767 5.50688 72.4576 5.79452C72.7385 6.08223 72.9609 6.42585 73.1247 6.82536C73.2886 7.22495 73.3705 7.6564 73.3705 8.11987V11.4042H69.2038V15.6714H71.2871V13.5377H73.3705V14.7124C73.3705 15.1759 73.2886 15.5994 73.1247 15.983C72.9609 16.3666 72.7385 16.7021 72.4576 16.9899C72.1767 17.2775 71.8451 17.5012 71.4628 17.6611C71.0804 17.8209 70.6707 17.9008 70.2338 17.9008C69.7968 17.9008 69.3911 17.8209 69.0165 17.6611C68.642 17.5012 68.3143 17.2775 68.0334 16.9899C67.7525 16.7021 67.534 16.3666 67.3779 15.983C67.2219 15.5994 67.1438 15.1759 67.1438 14.7124V8.11987C67.1438 7.67245 67.2219 7.2489 67.3779 6.84931C67.534 6.4498 67.7525 6.1022 68.0334 5.80649C68.3143 5.51088 68.642 5.27914 69.0165 5.11128C69.3911 4.94351 69.7968 4.85958 70.2338 4.85958ZM69.2038 7.16098V9.29461H71.2871V7.16098H69.2038ZM76.6945 17.8049V7.13703H74.5643V5.02744H80.8612V7.16098H78.7778V17.8049H76.6945ZM88.3051 17.8049H85.1918C84.7704 17.8049 84.3686 17.721 83.9862 17.5532C83.6039 17.3854 83.2723 17.1536 82.9914 16.858C82.7105 16.5623 82.4842 16.2227 82.3126 15.8391C82.1409 15.4556 82.055 15.048 82.055 14.6165V5.02744H84.1618V15.6714H86.2451V5.02744H88.3051V17.8049ZM89.4755 5.02744V10.4453C89.4755 11.0686 89.577 11.564 89.7798 11.9316C89.9827 12.2991 90.205 12.5749 90.447 12.7586C90.6889 12.9424 90.923 13.0623 91.1492 13.1182C91.3755 13.1742 91.5121 13.2021 91.5588 13.2021H93.6188V17.8049H95.7021V5.05139H93.6188V11.0686L92.5654 11.0446C92.3001 11.0446 92.0661 10.9886 91.8632 10.8768C91.6603 10.7649 91.5588 10.5331 91.5588 10.1816L91.5823 5.05139L89.4755 5.02744ZM99.9859 4.85958C100.423 4.85958 100.832 4.94351 101.215 5.11128C101.597 5.27914 101.929 5.50688 102.21 5.79452C102.491 6.08223 102.713 6.42585 102.877 6.82536C103.041 7.22495 103.123 7.6564 103.123 8.11987V11.4042H98.9559V15.6714H101.039V13.5377H103.123V14.7124C103.123 15.1759 103.041 15.5994 102.877 15.983C102.713 16.3666 102.491 16.7021 102.21 16.9899C101.929 17.2775 101.597 17.5012 101.215 17.6611C100.832 17.8209 100.423 17.9008 99.9859 17.9008C99.5489 17.9008 99.1432 17.8209 98.7687 17.6611C98.3941 17.5012 98.0664 17.2775 97.7855 16.9899C97.5046 16.7021 97.2861 16.3666 97.1301 15.983C96.974 15.5994 96.896 15.1759 96.896 14.7124V8.11987C96.896 7.67245 96.974 7.2489 97.1301 6.84931C97.2861 6.4498 97.5046 6.1022 97.7855 5.80649C98.0664 5.51088 98.3941 5.27914 98.7687 5.11128C99.1432 4.94351 99.5489 4.85958 99.9859 4.85958ZM98.9559 7.16098V9.29461H101.039V7.16098H98.9559ZM110.543 8.09592V9.29461H108.46V7.16098H106.376V15.6714H108.46V13.1782H110.543V14.7124C110.543 15.1759 110.461 15.5994 110.297 15.983C110.133 16.3666 109.911 16.7021 109.63 16.9899C109.349 17.2775 109.018 17.5012 108.635 17.6611C108.253 17.8209 107.843 17.9008 107.406 17.9008C106.969 17.9008 106.564 17.8209 106.189 17.6611C105.815 17.5012 105.487 17.2775 105.206 16.9899C104.925 16.7021 104.707 16.3666 104.551 15.983C104.394 15.5994 104.316 15.1759 104.316 14.7124V8.09592C104.316 7.64842 104.394 7.22495 104.551 6.82536C104.707 6.42585 104.925 6.08223 105.206 5.79452C105.487 5.50688 105.815 5.27914 106.189 5.11128C106.564 4.94351 106.969 4.85958 107.406 4.85958C107.843 4.85958 108.253 4.94351 108.635 5.11128C109.018 5.27914 109.349 5.50688 109.63 5.79452C109.911 6.08223 110.133 6.42585 110.297 6.82536C110.461 7.22495 110.543 7.64842 110.543 8.09592ZM117.94 5.02744V8.95898C117.94 9.4064 117.913 9.82197 117.858 10.2055C117.804 10.5891 117.698 10.9248 117.542 11.2124C117.386 11.5001 117.175 11.7238 116.91 11.8836C116.645 12.0434 116.294 12.1234 115.857 12.1234C116.278 12.1234 116.625 12.2073 116.899 12.3751C117.172 12.5429 117.386 12.7706 117.542 13.0583C117.698 13.3459 117.804 13.6856 117.858 14.0772C117.913 14.4687 117.94 14.8803 117.94 15.3117V17.8049H115.88V15.3117C115.88 14.7204 115.775 14.221 115.564 13.8134C115.354 13.4059 115.116 13.2021 114.85 13.2021H113.797V17.8049H111.714V5.05139H113.797V11.0686H114.85C115.116 11.0686 115.354 10.8608 115.564 10.4453C115.775 10.0297 115.88 9.52635 115.88 8.93494V5.02744H117.94ZM125.337 14.7124C125.337 15.1759 125.255 15.5994 125.091 15.983C124.928 16.3666 124.705 16.7021 124.424 16.9899C124.143 17.2775 123.812 17.5012 123.429 17.6611C123.047 17.8209 122.637 17.9008 122.2 17.9008C121.764 17.9008 121.358 17.8209 120.983 17.6611C120.609 17.5012 120.281 17.2775 120 16.9899C119.719 16.7021 119.501 16.3666 119.345 15.983C119.189 15.5994 119.111 15.1759 119.111 14.7124V8.11987C119.111 7.67245 119.189 7.2489 119.345 6.84931C119.501 6.4498 119.719 6.1022 120 5.80649C120.281 5.51088 120.609 5.27914 120.983 5.11128C121.358 4.94351 121.764 4.85958 122.2 4.85958C122.637 4.85958 123.047 4.94351 123.429 5.11128C123.812 5.27914 124.143 5.51088 124.424 5.80649C124.705 6.1022 124.928 6.4498 125.091 6.84931C125.255 7.2489 125.337 7.67245 125.337 8.11987V14.7124ZM121.171 7.16098V15.6714H123.254V7.16098H121.171ZM132.781 17.8049H129.668C129.246 17.8049 128.845 17.721 128.462 17.5532C128.08 17.3854 127.748 17.1536 127.467 16.858C127.187 16.5623 126.96 16.2227 126.789 15.8391C126.617 15.4556 126.531 15.048 126.531 14.6165V5.02744H128.638V15.6714H130.721V5.02744H132.781V17.8049ZM126.554 3.01367V0.880127H132.781V3.01367H126.554Z" fill="white"/>
<path d="M144.197 8.04302V9.24172H142.114V7.10808H140.031V15.6185H142.114V13.1253H144.197V14.6596C144.197 15.1231 144.115 15.5465 143.952 15.9302C143.788 16.3137 143.565 16.6493 143.284 16.937C143.004 17.2247 142.672 17.4484 142.29 17.6082C141.907 17.768 141.498 17.8479 141.061 17.8479C140.624 17.8479 140.218 17.768 139.843 17.6082C139.469 17.4484 139.141 17.2247 138.86 16.937C138.579 16.6493 138.361 16.3137 138.205 15.9302C138.049 15.5465 137.971 15.1231 137.971 14.6596V8.04302C137.971 7.5956 138.049 7.17205 138.205 6.77246C138.361 6.37294 138.579 6.02933 138.86 5.7417C139.141 5.45398 139.469 5.22623 139.843 5.05846C140.218 4.89061 140.624 4.80676 141.061 4.80676C141.498 4.80676 141.907 4.89061 142.29 5.05846C142.672 5.22623 143.004 5.45398 143.284 5.7417C143.565 6.02933 143.788 6.37294 143.952 6.77246C144.115 7.17205 144.197 7.5956 144.197 8.04302ZM147.521 17.752V7.08413H145.391V4.97453H151.688V7.10808H149.605V17.752H147.521ZM159.085 14.6596C159.085 15.1231 159.003 15.5465 158.839 15.9302C158.676 16.3137 158.453 16.6493 158.172 16.937C157.891 17.2247 157.56 17.4484 157.177 17.6082C156.795 17.768 156.385 17.8479 155.948 17.8479C155.511 17.8479 155.106 17.768 154.731 17.6082C154.357 17.4484 154.029 17.2247 153.748 16.937C153.467 16.6493 153.249 16.3137 153.093 15.9302C152.937 15.5465 152.859 15.1231 152.859 14.6596V8.06706C152.859 7.61955 152.937 7.19601 153.093 6.79649C153.249 6.3969 153.467 6.04929 153.748 5.75367C154.029 5.45797 154.357 5.22623 154.731 5.05846C155.106 4.89061 155.511 4.80676 155.948 4.80676C156.385 4.80676 156.795 4.89061 157.177 5.05846C157.56 5.22623 157.891 5.45797 158.172 5.75367C158.453 6.04929 158.676 6.3969 158.839 6.79649C159.003 7.19601 159.085 7.61955 159.085 8.06706V14.6596ZM154.919 7.10808V15.6185H157.002V7.10808H154.919ZM165.476 5.78961C165.725 5.53392 166.03 5.33412 166.389 5.1903C166.748 5.04648 167.13 4.97453 167.536 4.97453C167.973 4.97453 168.382 5.05447 168.765 5.21426C169.147 5.37404 169.479 5.5978 169.76 5.88551C170.04 6.17315 170.259 6.51277 170.415 6.90438C170.571 7.2959 170.649 7.71546 170.649 8.16288V17.752H168.566V7.10808H166.482V17.752H164.422V7.10808H162.339V17.752H160.256V4.97453H163.392C163.782 4.97453 164.157 5.04648 164.516 5.1903C164.875 5.33412 165.195 5.53392 165.476 5.78961ZM175.963 15.6185V11.0157H173.879V15.6185H175.963ZM174.909 17.752C174.472 17.752 174.067 17.6682 173.692 17.5003C173.318 17.3326 172.99 17.1048 172.709 16.8171C172.428 16.5295 172.21 16.1899 172.053 15.7982C171.897 15.4067 171.819 14.9872 171.819 14.5397V12.0465C171.819 11.599 171.897 11.1795 172.053 10.7879C172.21 10.3964 172.428 10.0568 172.709 9.76908C172.99 9.48144 173.318 9.2537 173.692 9.08584C174.067 8.91807 174.472 8.83414 174.909 8.83414H175.963V7.10808H171.819V4.97453H174.909C175.346 4.97453 175.756 5.05447 176.138 5.21426C176.521 5.37404 176.852 5.5978 177.133 5.88551C177.414 6.17315 177.636 6.51277 177.8 6.90438C177.964 7.2959 178.046 7.72345 178.046 8.18692V17.752H174.909ZM181.37 17.752V7.08413H179.24V4.97453H185.537V7.10808H183.453V17.752H181.37ZM192.934 14.6596C192.934 15.1231 192.852 15.5465 192.688 15.9302C192.524 16.3137 192.302 16.6493 192.021 16.937C191.74 17.2247 191.409 17.4484 191.026 17.6082C190.644 17.768 190.234 17.8479 189.797 17.8479C189.36 17.8479 188.955 17.768 188.58 17.6082C188.205 17.4484 187.878 17.2247 187.597 16.937C187.316 16.6493 187.097 16.3137 186.941 15.9302C186.785 15.5465 186.707 15.1231 186.707 14.6596V8.06706C186.707 7.61955 186.785 7.19601 186.941 6.79649C187.097 6.3969 187.316 6.04929 187.597 5.75367C187.878 5.45797 188.205 5.22623 188.58 5.05846C188.955 4.89061 189.36 4.80676 189.797 4.80676C190.234 4.80676 190.644 4.89061 191.026 5.05846C191.409 5.22623 191.74 5.45797 192.021 5.75367C192.302 6.04929 192.524 6.3969 192.688 6.79649C192.852 7.19601 192.934 7.61955 192.934 8.06706V14.6596ZM188.767 7.10808V15.6185H190.851V7.10808H188.767ZM197.194 4.97453C196.773 4.97453 196.375 5.05447 196 5.21426C195.626 5.37404 195.298 5.5978 195.017 5.88551C194.736 6.17315 194.514 6.51277 194.35 6.90438C194.186 7.2959 194.104 7.71546 194.104 8.16288V19.8616C194.401 19.8616 194.674 19.7338 194.924 19.4781C195.173 19.2224 195.392 18.9027 195.579 18.5192C195.766 18.1357 195.911 17.7201 196.012 17.2726C196.114 16.8251 196.164 16.4096 196.164 16.026V7.10808H198.248V17.752H200.331V4.97453H197.194ZM207.728 14.6596C207.728 15.1231 207.646 15.5465 207.482 15.9302C207.318 16.3137 207.096 16.6493 206.815 16.937C206.534 17.2247 206.203 17.4484 205.82 17.6082C205.438 17.768 205.028 17.8479 204.591 17.8479C204.154 17.8479 203.749 17.768 203.374 17.6082C203 17.4484 202.672 17.2247 202.391 16.937C202.11 16.6493 201.892 16.3137 201.736 15.9302C201.579 15.5465 201.502 15.1231 201.502 14.6596V8.06706C201.502 7.61955 201.579 7.19601 201.736 6.79649C201.892 6.3969 202.11 6.04929 202.391 5.75367C202.672 5.45797 203 5.22623 203.374 5.05846C203.749 4.89061 204.154 4.80676 204.591 4.80676C205.028 4.80676 205.438 4.89061 205.82 5.05846C206.203 5.22623 206.534 5.45797 206.815 5.75367C207.096 6.04929 207.318 6.3969 207.482 6.79649C207.646 7.19601 207.728 7.61955 207.728 8.06706V14.6596ZM203.561 7.10808V15.6185H205.645V7.10808H203.561ZM208.945 8.18692C208.945 7.73942 209.031 7.31986 209.203 6.92833C209.375 6.53673 209.601 6.1971 209.882 5.90947C210.163 5.62184 210.494 5.39409 210.877 5.22623C211.259 5.05846 211.661 4.97453 212.082 4.97453H213.112V7.10808H211.029V17.752H208.945V8.18692ZM220.556 17.752H217.443C217.021 17.752 216.619 17.6682 216.237 17.5003C215.855 17.3326 215.523 17.1008 215.242 16.8051C214.961 16.5095 214.735 16.1699 214.563 15.7863C214.392 15.4027 214.306 14.9952 214.306 14.5637V4.97453H216.413V15.6185H218.496V4.97453H220.556V17.752ZM228 17.752H224.887C224.465 17.752 224.063 17.6682 223.681 17.5003C223.299 17.3326 222.967 17.1008 222.686 16.8051C222.405 16.5095 222.179 16.1699 222.007 15.7863C221.836 15.4027 221.75 14.9952 221.75 14.5637V4.97453H223.857V15.6185H225.94V4.97453H228V17.752Z" fill="white"/>
</svg>
