<svg width="90" height="90" viewBox="0 0 90 90" fill="none" xmlns="http://www.w3.org/2000/svg">
<path d="M61.5912 16.6409C59.8473 16.6144 58.1575 16.8266 56.5522 17.2475C48.9672 19.2354 41.0336 19.2354 33.4488 17.2475C31.8435 16.8268 30.1537 16.6144 28.4098 16.6409C14.7498 16.7156 5.75359 31.7917 12.1319 43.7499L18.4792 56.4475C19.8154 59.1204 20.6402 62.0183 20.9111 64.9929L22.7896 85.6081C23.0163 88.0956 25.1068 90.0002 27.6103 90.0002C29.672 90.0002 31.5092 88.6984 32.1833 86.7546C34.3237 80.5822 39.4363 67.7325 45.0002 67.4048C50.6232 67.0736 55.9229 80.5482 58.086 86.8414C58.7358 88.732 60.5184 90.0002 62.5216 90.0002C64.9268 90.0002 66.9423 88.185 67.1873 85.7978L69.3592 64.6431C69.6412 61.8962 70.3958 59.2184 71.59 56.7273L77.4184 44.5684C84.5807 32.5413 75.711 16.7692 61.5912 16.6409ZM56.2634 33.1688L51.4194 35.3474C47.3435 37.1805 42.6662 37.1858 38.5863 35.3621L33.6854 33.1715C32.3024 32.5533 31.6836 30.9335 32.3032 29.5538C32.9229 28.174 34.5463 27.5567 35.9293 28.1749L40.8302 30.3656C43.4798 31.5499 46.5172 31.5464 49.1636 30.3561L54.0076 28.1774C55.3896 27.556 57.0141 28.1698 57.637 29.548C58.26 30.9265 57.6448 32.5475 56.2634 33.1688Z" fill="white"/>
<path d="M84.2475 6.88921C80.5471 3.14394 75.4739 0.849407 69.5759 0.25372C67.4199 0.0361801 65.1594 0.10225 62.8577 0.450525C37.9522 4.24921 42.5183 1.99439 25.1621 0.150397C25.1413 0.148113 25.1206 0.14618 25.0998 0.144423C11.5755 -1.25377 -0.0948827 7.63005 0.000581587 21.159C0.000405453 22.6145 1.18332 23.7946 2.64241 23.7946C4.1015 23.7946 5.28441 22.6145 5.28441 21.1588C5.25711 10.6526 14.1078 4.35447 24.6237 5.39473C42.1169 7.30391 38.0121 9.5503 63.6504 5.66234C65.5138 5.38014 67.3283 5.32497 69.0438 5.4984C73.7022 5.96897 77.6583 7.7295 80.4842 10.5899C83.2527 13.3919 84.716 17.0468 84.716 21.159C84.716 22.6146 85.8989 23.7948 87.358 23.7948C88.8171 23.7948 90 22.6146 90 21.159C90 15.6328 88.0107 10.6984 84.2475 6.88921Z" fill="white"/>
</svg>
