<svg width="156" height="164" viewBox="0 0 156 164" fill="none" xmlns="http://www.w3.org/2000/svg">
<path d="M127.301 0.123491C105.961 0.269937 92.2458 13.47 84.0526 21.3579C83.3484 22.0333 82.6877 22.6696 82.0648 23.2572C80.985 24.2765 79.3479 24.639 77.8668 24.1867C65.7286 20.4784 51.8236 16.8098 40.4026 20.2362C29.2938 23.5167 19.5561 29.7673 12.4869 38.1549C9.10174 42.207 6.38684 46.6787 4.42113 51.4309C4.35334 51.8128 4.23527 52.1875 4.07003 52.5465C-5.38926 76.6959 5.31798 103.508 29.6869 116.694C29.829 116.77 29.9649 116.853 30.094 116.944C30.5018 117.23 30.9983 117.555 31.4955 117.881C32.0311 118.233 32.5686 118.584 33.0173 118.897C44.5441 126.124 53.0406 138.043 56.1653 142.842C58.5368 146.581 61.026 150.618 63.3327 155.05C69.8294 167.599 76.6957 177.684 83.1944 184.221C83.2075 184.234 83.2497 184.331 83.2621 184.342C90.1256 191.447 96.3666 194.611 101.716 193.483L102.711 193.185C104.845 192.545 108.484 188.651 109.078 170.332C109.08 170.304 109.066 170.232 109.066 170.204L110.176 151.219C110.438 146.158 114.143 141.767 119.489 140.186C119.567 140.163 119.643 140.134 119.726 140.111C125.169 138.542 131.118 140.217 134.599 144.3L147.192 158.941C157.898 171.061 164.706 174.588 167.468 173.759L168.455 173.463C171.913 171.949 176.202 167.799 177.149 156.177C177.865 147.67 176.731 136.775 173.615 121.981C172.517 117.207 171.817 112.615 171.231 108.388C170.53 102.805 169.393 88.6066 173.848 76.5763C181.139 56.3955 177.76 34.7834 164.807 18.8006C155.181 6.68662 141.517 -0.114892 127.301 0.123491Z" fill="url(#paint0_linear_112_2246)"/>
<defs>
<linearGradient id="paint0_linear_112_2246" x1="139.18" y1="-7.71438" x2="43.8601" y2="276.505" gradientUnits="userSpaceOnUse">
<stop stop-color="#63DD50"/>
<stop offset="1" stop-color="#56D142" stop-opacity="0"/>
</linearGradient>
</defs>
</svg>
