<svg width="61" height="77" viewBox="0 0 61 77" fill="none" xmlns="http://www.w3.org/2000/svg">
<path fill-rule="evenodd" clip-rule="evenodd" d="M26.9623 44.3421C21.0113 42.8177 14.6338 37.9166 13.1471 37.6831C13.2941 38.6529 14.4847 40.8943 15.0096 41.7607C17.42 45.7393 21.961 47.5473 26.7007 48.2486C30.4276 48.7998 33.7198 48.3914 37.4223 47.5666C39.4967 47.1048 44.7616 45.4833 46.566 44.7273C45.5275 44.1333 31.9598 45.622 26.9623 44.3421Z" fill="#FEFEFE"/>
<path fill-rule="evenodd" clip-rule="evenodd" d="M23.2399 50.2707C21.9905 49.6007 18.7292 47.6178 17.5669 47.2935C17.7048 48.108 18.7824 50.0601 19.2713 50.7624C21.6679 54.2066 24.7077 55.1448 29.2364 55.9966C32.1615 56.5466 35.6212 56.0869 38.4968 55.452C39.8709 55.1488 41.13 54.8019 42.4774 54.4027C43.2347 54.1781 45.6229 53.5277 46.1963 53.0719C40.9258 53.1 34.2144 53.6904 29.3288 52.7828C27.4763 52.4387 24.8189 51.1176 23.2399 50.2707Z" fill="#FEFEFE"/>
<path fill-rule="evenodd" clip-rule="evenodd" d="M21.1234 55.7241C21.4839 57.6396 23.5193 60.0843 24.8298 60.9231C29.1731 63.703 34.6306 63.7218 39.5581 62.7462C41.3057 62.4003 45.5159 61.1614 46.2588 60.7886L46.4376 60.6882C41.5874 60.5912 36.2606 61.3321 31.6996 60.4102C27.362 59.5335 22.3658 55.8977 21.1234 55.7241Z" fill="#FEFEFE"/>
<path fill-rule="evenodd" clip-rule="evenodd" d="M24.5026 63.8584C25.059 64.931 25.1557 65.3192 25.8694 66.1938C27.6986 68.4354 30.6928 69.0639 33.5302 69.3799C35.6914 69.6207 37.9782 69.374 40.1305 68.9678C41.0313 68.7977 45.0677 67.8382 45.6984 67.5322C44.7558 67.1607 35.9715 67.9094 33.572 67.3779C31.583 66.9373 30.572 66.5529 28.8634 65.7799C27.9873 65.3835 25.2375 63.9314 24.5026 63.8584Z" fill="#FEFEFE"/>
<path fill-rule="evenodd" clip-rule="evenodd" d="M7.88256 2.9419C7.48103 3.0264 7.22754 3.17428 6.8577 3.42793C6.48786 3.68159 6.00183 4.04087 5.32552 4.81209C4.64936 5.58347 3.78278 6.76693 3.07494 7.92927C2.36694 9.09161 1.81738 10.2328 1.39488 11.4374C0.97207 12.642 0.676296 13.91 0.460759 15.1146C0.245221 16.3192 0.110046 17.4604 0.042538 18.6544C-0.0249705 19.8484 -0.0249562 21.0953 0.137615 22.4055C0.30034 23.7157 0.62564 25.0895 1.18989 26.7906C1.754 28.4918 2.55707 30.5206 3.56097 32.5283C4.56472 34.5359 5.76928 36.5224 7.05853 38.4562C8.34762 40.3897 9.72122 42.2706 10.9364 43.8451C12.1515 45.4195 13.2082 46.6875 13.7365 47.3004C14.2648 47.9132 14.2648 47.8709 14.1169 47.5645C13.969 47.258 13.6731 46.6875 13.0708 45.4723C12.4685 44.2572 11.5599 42.3974 10.8096 40.6962C10.0594 38.995 9.46757 37.4523 8.87591 35.8884C8.2841 34.3245 7.69246 32.7397 7.25924 31.0172C6.82602 29.2949 6.55124 27.4351 6.40336 25.8344C6.25533 24.2334 6.23421 22.8915 6.32942 21.7134C6.42449 20.5352 6.63574 19.5209 7.00558 18.4536C7.37542 17.3864 7.90383 16.2663 8.59591 15.2519C9.28799 14.2376 10.1439 13.3289 11.0209 12.5892C11.8979 11.8495 12.7962 11.2788 13.4617 10.946C14.1275 10.6132 14.5607 10.5182 14.92 10.4652C15.2793 10.4124 15.5645 10.4018 15.8921 10.4917C16.2196 10.5815 16.5895 10.7717 17.1548 11.0411C17.7201 11.3107 18.4809 11.6592 19.7806 12.156C21.0802 12.6526 22.9189 13.2972 24.4352 13.7462C25.9514 14.1953 27.1455 14.4488 28.1757 14.6232C29.2059 14.7975 30.0724 14.8926 30.8913 14.9508C31.7102 15.0089 32.4815 15.0301 33.2846 14.9508C34.0877 14.8715 34.9224 14.6919 35.7519 14.4488C36.5815 14.2059 37.4055 13.8994 37.8018 13.7304C38.198 13.5613 38.1663 13.5296 37.9656 13.5561C37.7648 13.5824 37.3951 13.6669 36.6289 13.7145C35.8629 13.7621 34.7006 13.7727 33.4326 13.6775C32.1646 13.5824 30.7909 13.3817 29.2958 13.0013C27.8006 12.6209 26.184 12.0608 24.3929 11.3107C22.6019 10.5604 20.6365 9.61989 18.9987 8.74825C17.3608 7.87646 16.0506 7.0734 14.7562 6.24401C13.4617 5.41446 12.1832 4.55859 11.4435 4.04087C10.7039 3.52315 10.5032 3.34343 10.2495 3.19556C9.99601 3.04753 9.68953 2.93134 9.26151 2.88374C8.83365 2.83628 8.28409 2.8574 7.88256 2.9419Z" fill="#FEFEFE"/>
<path fill-rule="evenodd" clip-rule="evenodd" d="M48.8255 1.2641C47.3673 0.77807 46.1416 0.608913 45.2488 0.519208C44.3559 0.42935 43.7957 0.418788 42.8554 0.439913C41.915 0.461039 40.5941 0.513851 39.0039 0.68821C37.4137 0.862568 35.5539 1.15847 33.5885 1.60225C31.6231 2.04603 29.5521 2.63769 28.1203 3.09219C26.6885 3.54653 25.896 3.86341 24.8235 4.36015C23.7511 4.85675 22.3985 5.53306 21.4053 6.07726C20.4119 6.62131 19.778 7.0334 19.4769 7.25001C19.1756 7.46661 19.2075 7.48774 19.4187 7.39804C19.6301 7.30818 20.0211 7.10734 20.5968 6.82735C21.1727 6.54737 21.9336 6.18809 22.9375 5.79712C23.9412 5.40615 25.188 4.9835 26.4138 4.61901C27.6395 4.25453 28.8441 3.94806 30.0646 3.69976C31.2849 3.45131 32.5212 3.26119 34.1116 3.15556C35.7018 3.04978 37.6461 3.02866 39.0304 3.07106C40.4145 3.11331 41.2387 3.21894 42.1792 3.37737C43.1196 3.53597 44.1762 3.74722 45.2012 4.06425C46.2261 4.38128 47.2194 4.80393 48.1546 5.40615C49.0898 6.00852 49.9667 6.79046 50.7855 7.60408C51.6045 8.41771 52.3654 9.26302 53.0838 10.2404C53.8023 11.2179 54.4786 12.3272 54.9435 13.199C55.4084 14.0708 55.6621 14.7047 55.8999 15.3916C56.1376 16.0785 56.3595 16.8182 56.5602 17.5947C56.761 18.3713 56.9406 19.1851 57.0251 20.3315C57.1098 21.4779 57.0991 22.9573 56.9829 24.257C56.8667 25.5566 56.6447 26.6767 56.4492 27.5959C56.2537 28.5153 56.0847 29.2338 55.6726 30.3169C55.2605 31.4 54.6054 32.8475 53.9504 34.0997C53.2952 35.3518 52.64 36.4085 52.1011 37.2908C51.5623 38.1732 51.1396 38.881 50.8489 39.3302C50.5584 39.7793 50.4 39.9694 50.3207 40.1121C50.2414 40.2548 50.2413 40.3499 50.5532 39.98C50.8648 39.6102 51.4882 38.7754 52.2544 37.7188C53.0204 36.6621 53.9292 35.3836 54.822 34.0521C55.7149 32.7208 56.5919 31.3366 57.2946 30.1161C57.9974 28.8957 58.5256 27.839 58.9642 26.7612C59.4026 25.6835 59.7514 24.5845 60.0566 23.5173C60.3617 22.4501 60.6234 21.4146 60.7543 20.2733C60.8852 19.1321 60.8852 17.8853 60.8071 16.8393C60.729 15.7931 60.5731 14.9478 60.2415 13.812C59.9098 12.6759 59.4026 11.2495 58.6946 9.86524C57.9868 8.48108 57.078 7.13918 56.2063 6.06134C55.3345 4.9835 54.4997 4.16988 53.237 3.36161C51.9744 2.55319 50.2838 1.75013 48.8255 1.2641Z" fill="#FEFEFE"/>
<path fill-rule="evenodd" clip-rule="evenodd" d="M32.5082 74.8081C32.2019 74.684 31.9271 74.5465 31.61 74.3458C31.293 74.145 30.9339 73.8809 30.6723 73.6801C30.4108 73.4794 30.247 73.3419 30.0595 73.1729C29.8718 73.0038 29.6606 72.8031 29.5311 72.708C29.4017 72.6128 29.3541 72.6234 29.3964 72.7977C29.4386 72.9721 29.5707 73.3102 29.8535 73.7462C30.1361 74.182 30.5693 74.7157 31.0105 75.0987C31.4516 75.4817 31.9006 75.7142 32.6192 75.9386C33.3377 76.1632 34.3257 76.3798 35.2265 76.4856C36.1273 76.5912 36.941 76.5859 37.6542 76.5304C38.3674 76.4749 38.9803 76.3692 39.4505 76.2345C39.9206 76.0998 40.2482 75.936 40.6498 75.7089C41.0513 75.4817 41.5268 75.1911 41.9785 74.8239C42.4302 74.4567 42.8583 74.0129 43.2069 73.5454C43.5556 73.0779 43.825 72.5865 43.9466 72.2774C44.0681 71.9683 44.0416 71.8414 43.9888 71.8071C43.936 71.7728 43.8568 71.831 43.6745 72.0237C43.4922 72.2166 43.2068 72.5442 42.8054 72.9035C42.4038 73.2628 41.8861 73.6537 41.3604 73.9734C40.8347 74.293 40.301 74.5413 39.7542 74.7474C39.2074 74.9534 38.6475 75.1172 38.2326 75.2149C37.8179 75.3127 37.5485 75.3444 36.9726 75.3575C36.3968 75.3707 35.5144 75.3655 34.8831 75.3284C34.2518 75.2916 33.8713 75.2228 33.5121 75.133C33.1528 75.0431 32.8147 74.9323 32.5082 74.8081Z" fill="#FEFEFE"/>
</svg>
